HIERARCHY
ROOT Hips
{
	OFFSET 0.000000 0.000000 0.000000
	CHANNELS 6 Xposition Yposition Zposition Zrotation Yrotation Xrotation 
	JOINT LHipJoint
	{
		OFFSET 0.000000 0.000000 0.000000
		CHANNELS 3 Zrotation Yrotation Xrotation
		JOINT LeftUpLeg
		{
			OFFSET 1.363060 -1.794630 0.839290
			CHANNELS 3 Zrotation Yrotation Xrotation
			JOINT LeftLeg
			{
				OFFSET 2.448110 -6.726130 0.000000
				CHANNELS 3 Zrotation Yrotation Xrotation
				JOINT LeftFoot
				{
					OFFSET 2.562200 -7.039590 0.000000
					CHANNELS 3 Zrotation Yrotation Xrotation
					JOINT LeftToeBase
					{
						OFFSET 0.157640 -0.433110 2.322550
						CHANNELS 3 Zrotation Yrotation Xrotation
						End Site
						{
							OFFSET 0.000000 0.000000 0.000000
						}
					}
				}
			}
		}
	}
	JOINT RHipJoint
	{
		OFFSET 0.000000 0.000000 0.000000
		CHANNELS 3 Zrotation Yrotation Xrotation
		JOINT RightUpLeg
		{
			OFFSET -1.305520 -1.794630 0.839290
			CHANNELS 3 Zrotation Yrotation Xrotation
			JOINT RightLeg
			{
				OFFSET -2.542530 -6.985550 0.000000
				CHANNELS 3 Zrotation Yrotation Xrotation
				JOINT RightFoot
				{
					OFFSET -2.568260 -7.056230 0.000000
					CHANNELS 3 Zrotation Yrotation Xrotation
					JOINT RightToeBase
					{
						OFFSET -0.164730 -0.452590 2.363150
						CHANNELS 3 Zrotation Yrotation Xrotation
						End Site
						{
							OFFSET 0.000000 0.000000 0.000000
						}
					}
				}
			}
		}
	}
	JOINT LowerBack
	{
		OFFSET 0.000000 0.000000 0.000000
		CHANNELS 3 Zrotation Yrotation Xrotation
		JOINT Spine
		{
			OFFSET 0.028270 2.035590 -0.193380
			CHANNELS 3 Zrotation Yrotation Xrotation
			JOINT Spine1
			{
				OFFSET 0.056720 2.048850 -0.042750
				CHANNELS 3 Zrotation Yrotation Xrotation
				JOINT Neck
				{
					OFFSET 0.000000 0.000000 0.000000
					CHANNELS 3 Zrotation Yrotation Xrotation
					JOINT Neck1
					{
						OFFSET -0.054170 1.746240 0.172020
						CHANNELS 3 Zrotation Yrotation Xrotation
						JOINT Head
						{
							OFFSET 0.104070 1.761360 -0.123970
							CHANNELS 3 Zrotation Yrotation Xrotation
							End Site
							{
								OFFSET 0.000000 0.000000 0.000000
							}
						}
					}
				}
				JOINT LeftShoulder
				{
					OFFSET 0.000000 0.000000 0.000000
					CHANNELS 3 Zrotation Yrotation Xrotation
					JOINT LeftArm
					{
						OFFSET 3.362410 1.200890 -0.311210
						CHANNELS 3 Zrotation Yrotation Xrotation
						JOINT LeftForeArm
						{
							OFFSET 4.983000 -0.000000 -0.000000
							CHANNELS 3 Zrotation Yrotation Xrotation
							JOINT LeftHand
							{
								OFFSET 3.483560 -0.000000 -0.000000
								CHANNELS 3 Zrotation Yrotation Xrotation
								JOINT LeftFingerBase
								{
									OFFSET 0.000000 0.000000 0.000000
									CHANNELS 3 Zrotation Yrotation Xrotation
									JOINT LeftHandIndex1
									{
										OFFSET 0.715260 -0.000000 -0.000000
										CHANNELS 3 Zrotation Yrotation Xrotation
										End Site
										{
											OFFSET 0.000000 0.000000 0.000000
										}
									}
								}
								JOINT LThumb
								{
									OFFSET 0.000000 0.000000 0.000000
									CHANNELS 3 Zrotation Yrotation Xrotation
									End Site
									{
										OFFSET 0.000000 0.000000 0.000000
									}
								}
							}
						}
					}
				}
				JOINT RightShoulder
				{
					OFFSET 0.000000 0.000000 0.000000
					CHANNELS 3 Zrotation Yrotation Xrotation
					JOINT RightArm
					{
						OFFSET -3.136600 1.374050 -0.404650
						CHANNELS 3 Zrotation Yrotation Xrotation
						JOINT RightForeArm
						{
							OFFSET -5.241900 -0.000000 -0.000000
							CHANNELS 3 Zrotation Yrotation Xrotation
							JOINT RightHand
							{
								OFFSET -3.444170 -0.000000 -0.000000
								CHANNELS 3 Zrotation Yrotation Xrotation
								JOINT RightFingerBase
								{
									OFFSET 0.000000 0.000000 0.000000
									CHANNELS 3 Zrotation Yrotation Xrotation
									JOINT RightHandIndex1
									{
										OFFSET -0.622530 -0.000000 -0.000000
										CHANNELS 3 Zrotation Yrotation Xrotation
										End Site
										{
											OFFSET 0.000000 0.000000 0.000000
										}
									}
								}
								JOINT RThumb
								{
									OFFSET 0.000000 0.000000 0.000000
									CHANNELS 3 Zrotation Yrotation Xrotation
									End Site
									{
										OFFSET 0.000000 0.000000 0.000000
									}
								}
							}
						}
					}
				}
			}
		}
	}
}
MOTION
Frames: 5
Frame Time: 0.008333
5.688086 17.289941 0.172421 155.666552 -84.546624 -132.844629 -9.684509 0.680405 3.886547 -8.559472 -4.201562 -42.697800 -2.047209 0.788965 32.094401 0.687537 1.421087 -9.330339 -0.054400 0.000000 -30.584600 8.696336 -1.858508 5.187446 8.349092 7.761387 -30.728321 3.043954 0.490827 12.628767 0.450361 4.466509 -5.239026 0.085300 -0.000000 -57.630800 -1.013785 -0.806888 -9.686978 -1.028476 -1.083003 -4.861524 -6.781046 -1.183365 -0.245797 9.720328 -6.988076 -9.490839 -3.638687 -0.255948 -0.561644 0.000000 0.000000 0.000000 -2.075203 12.018604 1.599129 -59.023532 -3.319737 -10.951348 -0.575307 -74.610583 -0.095309 27.406635 -1.497391 -0.424059 -0.299686 0.233844 -0.000000 0.000000 0.000000 0.000000 0.000000 0.000000 0.000000 13.540741 -1.080372 -0.083261 67.180020 13.566146 -6.841377 0.585090 68.244969 -0.066493 -13.961919 16.556864 -2.119064 0.133292 -0.467390 0.000000 0.000000 0.000000 0.000000 0.000000 0.000000 0.000000 
5.582701 17.261331 0.168827 156.117469 -84.212067 -132.715067 -9.529485 0.623112 4.059872 -8.545209 -5.011707 -43.562736 -2.119574 0.721774 31.586742 0.651199 1.034929 -9.677999 -0.065901 0.000000 -31.660400 8.765998 -1.800082 5.189446 8.033760 8.168248 -32.280218 2.914653 0.222373 15.302371 0.369241 4.381642 -6.403808 0.061601 0.000000 -58.322200 -1.182790 -0.628498 -9.800842 -1.075623 -0.891789 -4.903925 -6.742062 -0.991551 -0.304315 9.643152 -6.740068 -9.508931 -3.639111 -0.255210 -0.576041 0.000000 0.000000 0.000000 -2.157400 12.246942 1.634485 -59.201831 -3.466032 -11.208314 -0.562223 -74.698009 -0.095587 27.777402 -1.722236 -0.486179 -0.301416 0.234141 -0.000000 0.000000 0.000000 0.000000 0.000000 0.000000 0.000000 13.405301 -0.704680 -0.095269 67.391658 14.239547 -5.883228 0.575113 68.586179 -0.070051 -14.285728 16.812495 -2.203318 0.136064 -0.478897 0.000000 0.000000 0.000000 0.000000 0.000000 0.000000 0.000000 
5.478513 17.225697 0.165952 156.494397 -83.893225 -132.494384 -9.381838 0.566639 4.234326 -8.507003 -5.843918 -44.558428 -2.168980 0.685283 31.467538 0.626854 0.700125 -10.112485 -0.080600 -0.000000 -32.539800 8.840298 -1.734311 5.190536 7.725114 8.559708 -33.998639 2.767841 -0.072336 18.216582 0.283910 4.259781 -7.520462 0.040400 0.000000 -59.153800 -1.343432 -0.469398 -9.916568 -1.119449 -0.719748 -4.950245 -6.701069 -0.819124 -0.376451 9.566909 -6.463968 -9.518314 -3.646691 -0.255104 -0.588581 0.000000 0.000000 0.000000 -2.254962 12.436433 1.671597 -59.457242 -3.562471 -11.414482 -0.547873 -74.854053 -0.095677 28.144848 -2.015431 -0.567387 -0.303009 0.234892 -0.000000 0.000000 0.000000 0.000000 0.000000 0.000000 0.000000 13.293758 -0.309384 -0.102963 67.627161 14.897282 -4.935140 0.566301 68.911796 -0.073495 -14.579293 17.108918 -2.289773 0.138453 -0.490612 0.000000 0.000000 0.000000 0.000000 0.000000 0.000000 0.000000 
5.375249 17.182037 0.163666 156.748998 -83.598589 -132.137477 -9.242956 0.513243 4.409682 -8.455048 -6.690840 -45.694267 -2.192769 0.683946 31.756560 0.612474 0.411266 -10.604281 -0.096500 -0.000000 -33.224700 8.922061 -1.659995 5.190611 7.424919 8.916114 -35.865754 2.602966 -0.387898 21.342607 0.196674 4.107703 -8.578463 0.022899 0.000000 -60.094300 -1.495432 -0.332449 -10.036005 -1.159738 -0.569867 -5.000192 -6.659227 -0.669000 -0.460182 9.495467 -6.169535 -9.522071 -3.661482 -0.255607 -0.600080 0.000000 0.000000 0.000000 -2.373516 12.589805 1.709993 -59.781762 -3.612206 -11.569747 -0.531917 -75.088599 -0.095639 28.505097 -2.353749 -0.661987 -0.304562 0.235996 -0.000000 0.000000 0.000000 0.000000 0.000000 0.000000 0.000000 13.212350 0.095673 -0.106688 67.895401 15.542693 -4.000464 0.558885 69.225330 -0.076693 -14.818377 17.443202 -2.374231 0.140218 -0.502545 0.000000 0.000000 0.000000 0.000000 0.000000 0.000000 0.000000 
5.273062 17.129243 0.161931 156.868808 -83.333435 -131.642985 -9.115553 0.463654 4.581405 -8.400665 -7.536165 -46.968646 -2.188945 0.721905 32.468468 0.604816 0.157843 -11.125541 -0.111900 0.000001 -33.737600 9.012145 -1.575112 5.187844 7.136990 9.224495 -37.853109 2.420709 -0.718406 24.653178 0.109627 3.934952 -9.582318 0.009500 0.000001 -61.092900 -1.635949 -0.218462 -10.153879 -1.195731 -0.443163 -5.051358 -6.616980 -0.541979 -0.551005 9.432179 -5.876038 -9.527649 -3.682310 -0.256530 -0.612656 0.000000 0.000000 0.000000 -2.518724 12.719056 1.748044 -60.173245 -3.637569 -11.675155 -0.514361 -75.399008 -0.095594 28.855404 -2.707399 -0.762780 -0.306141 0.237409 -0.000000 0.000000 0.000000 0.000000 0.000000 0.000000 0.000000 13.163969 0.491317 -0.107165 68.209973 16.194555 -3.083430 0.553030 69.519564 -0.079567 -14.988256 17.811319 -2.453590 0.141195 -0.514705 0.000000 0.000000 0.000000 0.000000 0.000000 0.000000 0.000000 
